<?xml version="1.0" encoding="UTF-8"?>
<svg version="1.1" xmlns="http://www.w3.org/2000/svg" width="32" height="32">
<path d="M0 0 C3.70051962 1.60892157 5.99474664 3.49080662 8 7 C9.62571239 12.22550411 8.43932064 15.21170392 6 20 C5.34 20.99 4.68 21.98 4 23 C3.690625 24.175625 3.38125 25.35125 3.0625 26.5625 C2 30 2 30 -1 32 C-4.5 31.9375 -4.5 31.9375 -8 31 C-10.72478121 27.71147095 -11.66396922 24.00809233 -13 20 C-13.804375 18.7934375 -13.804375 18.7934375 -14.625 17.5625 C-16.48218077 14.10139038 -16.47678999 11.88243276 -16 8 C-11.94620991 0.59134914 -8.04093945 -0.92017793 0 0 Z " fill="#FBC474" transform="translate(20,0)"/>
<path d="M0 0 C2.96912882 1.38980498 4.69657028 2.69657028 7 5 C7.73136478 10.2045959 7.77390797 14.65855953 5.125 19.25 C4.42375 20.1575 3.7225 21.065 3 22 C2.13949192 24.31675252 1.57830935 26.59037773 1 29 C-0.32 29.33 -1.64 29.66 -3 30 C-2.34 29.01 -1.68 28.02 -1 27 C-0.690625 25.865625 -0.38125 24.73125 -0.0625 23.5625 C1 20 1 20 2.625 18.125 C4.80330456 14.75852932 4.73139764 10.89361683 4 7 C2.43098183 5.07598052 1.22127515 4.11063757 -1 3 C-4.87984253 2.74696679 -7.77364205 2.69545861 -11 5 C-13.03037226 7.61047862 -12.99889955 9.02971213 -12.875 12.375 C-11.91267763 16.36176411 -10.33998718 18.66729099 -8 22 C-7.27648573 23.98014432 -6.59734611 25.97821315 -6 28 C-5.67 28.66 -5.34 29.32 -5 30 C-6.32 30 -7.64 30 -9 30 C-9.25394531 29.33613281 -9.50789062 28.67226563 -9.76953125 27.98828125 C-11.88934848 22.46652571 -11.88934848 22.46652571 -14.75 17.3125 C-16.54262456 13.99614456 -16.45635601 11.71604179 -16 8 C-11.95638723 0.60994908 -8.03366227 -0.94596726 0 0 Z " fill="#EBEBED" transform="translate(20,0)"/>
<path d="M0 0 C4.63235294 2.26470588 4.63235294 2.26470588 6 5 C6.77408982 11.34499849 5.91017731 14.82476533 2 20 C0.75675853 23.2249208 0.75675853 23.2249208 0 26 C0.33 26.33 0.66 26.66 1 27 C1.18175781 26.39671875 1.36351562 25.7934375 1.55078125 25.171875 C3.68421053 18.38866397 3.68421053 18.38866397 5.625 16 C7.8828561 12.71584567 7.7581955 8.90222431 8 5 C9.27666873 7.14212581 10.03578663 8.47649273 9.86328125 11 C8.75541328 15.02289646 7.57174075 17.6781682 5 21 C4.67 22.19625 4.34 23.3925 4 24.625 C3 28 3 28 0 30 C-3.6875 29.625 -3.6875 29.625 -7 29 C-6.34 28.34 -5.68 27.68 -5 27 C-5.66 26.34 -6.32 25.68 -7 25 C-7.28875 23.9275 -7.5775 22.855 -7.875 21.75 C-8.79336651 17.93453163 -8.79336651 17.93453163 -11.1875 15 C-13 12 -13 12 -13 8.375 C-11.92399035 4.74346742 -10.93967876 3.31611054 -8 1 C-5.17998673 -0.41000664 -3.12992745 -0.24548451 0 0 Z M-9.5 3.5625 C-11.60248778 6.97904264 -11.54531303 9.04648052 -11 13 C-9.16026765 16.0929357 -9.16026765 16.0929357 -7 19 C-5.75 22.375 -5.75 22.375 -5 25 C-3.68 25 -2.36 25 -1 25 C-0.73445313 24.38511719 -0.46890625 23.77023438 -0.1953125 23.13671875 C0.15789063 22.32847656 0.51109375 21.52023438 0.875 20.6875 C1.22304688 19.88699219 1.57109375 19.08648438 1.9296875 18.26171875 C3 16 3 16 5 13 C5.41857482 9.16306413 5.54644269 6.88796936 3.5 3.5625 C-0.85953624 0.83778985 -5.14046376 0.83778985 -9.5 3.5625 Z " fill="#6B616D" transform="translate(19,2)"/>
<path d="M0 0 C1.32 0.33 2.64 0.66 4 1 C4 1.66 4 2.32 4 3 C4.66 3 5.32 3 6 3 C6.33 2.01 6.66 1.02 7 0 C7.99 0 8.98 0 10 0 C9.67 1.65 9.34 3.3 9 5 C8.34 5 7.68 5 7 5 C7.33 8.63 7.66 12.26 8 16 C6.02 16.99 6.02 16.99 4 18 C3.34 17.34 2.68 16.68 2 16 C2.0234375 13.3984375 2.0234375 13.3984375 2.375 10.375 C2.48585938 9.37210938 2.59671875 8.36921875 2.7109375 7.3359375 C2.80632813 6.56507812 2.90171875 5.79421875 3 5 C2.01 4.67 1.02 4.34 0 4 C0 2.68 0 1.36 0 0 Z " fill="#FFE1B6" transform="translate(11,10)"/>
<path d="M0 0 C0.66 0.33 1.32 0.66 2 1 C2.45201445 8.05644777 2.46243182 12.22508823 -2 18 C-2.86050808 20.31675252 -3.42169065 22.59037773 -4 25 C-5.32 25.33 -6.64 25.66 -8 26 C-7.01 24.515 -7.01 24.515 -6 23 C-5.5359375 21.2984375 -5.5359375 21.2984375 -5.0625 19.5625 C-4 16 -4 16 -2.44140625 14.09765625 C-0.6395484 11.47544036 -0.71561975 10.01572847 -0.875 6.875 C-1.08446866 2.16893733 -1.08446866 2.16893733 0 0 Z " fill="#C8C7CC" transform="translate(25,4)"/>
<path d="M0 0 C1.98 0 3.96 0 6 0 C5.67 1.32 5.34 2.64 5 4 C3.68 4 2.36 4 1 4 C0.67 2.68 0.34 1.36 0 0 Z " fill="#B6C5DE" transform="translate(13,23)"/>
<path d="M0 0 C1.32 0 2.64 0 4 0 C4.33 1.32 4.66 2.64 5 4 C4.01 4 3.02 4 2 4 C1.67 4.99 1.34 5.98 1 7 C0.67 4.69 0.34 2.38 0 0 Z " fill="#FDCC85" transform="translate(9,6)"/>
<path d="M0 0 C0.33 0 0.66 0 1 0 C1.33 2.64 1.66 5.28 2 8 C0.02 8 -1.96 8 -4 8 C-4 7.34 -4 6.68 -4 6 C-2.68 6 -1.36 6 0 6 C0 4.02 0 2.04 0 0 Z " fill="#EAE7DF" transform="translate(17,15)"/>
</svg>
