<svg id="Layer_2" height="512" viewBox="0 0 512 512" width="512" xmlns="http://www.w3.org/2000/svg" xmlns:xlink="http://www.w3.org/1999/xlink" data-name="Layer 2"><linearGradient id="linear-gradient" gradientUnits="userSpaceOnUse" x1="43.93" x2="468.07" y1="43.94" y2="468.07"><stop offset="0" stop-color="#64b5f6"/><stop offset="1" stop-color="#1976d2"/></linearGradient><g id="Icon"><path id="UserFolder" d="m362 0h-212c-82.84 0-150 67.16-150 150v212c0 82.84 67.16 150 150 150h212c82.84 0 150-67.16 150-150v-212c0-82.84-67.16-150-150-150zm79 358.79c0 31.92-25.88 57.81-57.81 57.81h-254.38c-31.93 0-57.81-25.89-57.81-57.81v-205.58c0-32.08 26.12-58.02 58.2-57.81l77.76.52c7.59.05 14.86 3.08 20.23 8.45l29.26 29.21c5.42 5.41 12.76 8.45 20.42 8.45h106.32c31.93 0 57.81 25.88 57.81 57.81zm-105.31-49.07c-5.56-17.37-24.43-26.64-41.59-20.44-10.1 3.66-22.8 6.43-38.1 6.43s-28-2.77-38.1-6.43c-17.16-6.2-36.03 3.07-41.59 20.44l-14.88 46.42c-4.16 12.98 5.53 26.25 19.16 26.25h150.82c13.63 0 23.32-13.27 19.16-26.25zm-79.69-32.72c27.77 0 50.28-22.52 50.28-50.29s-22.51-50.28-50.28-50.28-50.28 22.51-50.28 50.28 22.51 50.29 50.28 50.29z" fill="url(#linear-gradient)"/></g></svg>